<svg width="822" height="822" viewBox="0 0 822 822" fill="none" xmlns="http://www.w3.org/2000/svg">
<circle cx="397.5" cy="424.5" r="395.5" stroke="#E95E2E" stroke-width="4"/>
<circle cx="397.5" cy="424.5" r="242.5" stroke="#E95E2E" stroke-width="4"/>
<circle cx="397.5" cy="424.5" r="318.5" stroke="#E95E2E" stroke-width="4"/>
<circle cx="397.5" cy="424.5" r="153.5" stroke="#E95E2E" stroke-width="4"/>
<circle cx="411" cy="27" r="27" fill="#4DA329"/>
<circle cx="526" cy="211" r="27" fill="#E95E2E"/>
<circle cx="148" cy="728" r="27" fill="#E95E2E"/>
<circle cx="228" cy="65" r="27" fill="#F29301"/>
<circle cx="78" cy="376" r="27" fill="#F29301"/>
<circle cx="319" cy="553" r="27" fill="#4DA329"/>
<circle cx="589" cy="684" r="27" fill="#2699B0"/>
<circle cx="526" cy="508" r="27" fill="#2699B0"/>
<circle cx="201" cy="286" r="17" fill="#2699B0"/>
<circle cx="336" cy="113" r="17" fill="#2699B0"/>
<circle cx="301" cy="728" r="17" fill="#F29301"/>
<circle cx="795" cy="473" r="27" fill="#4DA329"/>
<circle cx="56" cy="219" r="12" fill="#4DA329"/>
<circle cx="783" cy="336" r="12" fill="#2699B0"/>
<circle cx="638" cy="453" r="28" fill="#E5352C"/>
<circle cx="733" cy="631" r="15" fill="#F29301"/>
<circle cx="538" cy="362" r="15" fill="#F29301"/>
<circle cx="448" cy="661" r="15" fill="#E95E2E"/>
<circle cx="51" cy="620" r="15" fill="#E5352C"/>
<circle cx="600" cy="80" r="15" fill="#E5352C"/>
</svg>